<?xml version="1.0" encoding="UTF-8"?>
<svg version="1.1" xmlns="http://www.w3.org/2000/svg" width="512" height="512">
<path d="M0 0 C1.14638443 -0.00807175 2.29276886 -0.01614349 3.47389221 -0.02445984 C5.90030434 -0.03824259 8.32673539 -0.0489905 10.75317383 -0.05688477 C13.18161902 -0.06829799 15.61004131 -0.08857584 18.03833008 -0.1184082 C70.23577851 -0.75753149 121.16425209 14.1116217 159.9765625 50.05859375 C162.00390625 52.23828125 162.00390625 52.23828125 162.00390625 54.23828125 C162.58785156 54.48964844 163.17179687 54.74101563 163.7734375 55 C176.280287 61.9433823 184.9104252 80.73544875 191.00390625 93.23828125 C191.60585815 94.47276001 191.60585815 94.47276001 192.2199707 95.73217773 C195.34637516 102.35659908 197.68728586 109.01103089 199.69140625 116.05078125 C200.14302124 117.613125 200.14302124 117.613125 200.60375977 119.20703125 C202.75157597 126.84265716 204.32082414 134.32010493 205.00390625 142.23828125 C192.70203868 144.21136329 180.37069556 145.86070778 168.00390625 147.36328125 C166.94999191 147.49240906 166.94999191 147.49240906 165.87478638 147.62414551 C157.26386999 148.67614031 148.65628379 149.5971368 140.00390625 150.23828125 C139.90686401 149.27341797 139.90686401 149.27341797 139.80786133 148.2890625 C138.43593923 135.08092667 136.72313033 122.68242569 132.00390625 110.23828125 C131.61203125 109.19929688 131.22015625 108.1603125 130.81640625 107.08984375 C126.28596166 95.73392672 121.04366961 85.01414469 113.5078125 75.34765625 C112.00390625 73.23828125 112.00390625 73.23828125 112.00390625 71.23828125 C111.34390625 71.23828125 110.68390625 71.23828125 110.00390625 71.23828125 C108.734375 69.875 108.734375 69.875 107.19140625 67.92578125 C95.69229127 54.47443558 80.75675711 44.75423659 64.00390625 39.23828125 C63.34342285 39.02042969 62.68293945 38.80257812 62.00244141 38.578125 C52.41659946 35.46367183 43.0533691 33.31836371 33.00390625 32.23828125 C32.32440918 32.15215576 31.64491211 32.06603027 30.94482422 31.97729492 C-0.94433722 28.05661085 -38.26692244 33.24994281 -65.2890625 51.45703125 C-67.99609375 53.23828125 -67.99609375 53.23828125 -69.99609375 53.23828125 C-69.99609375 53.89828125 -69.99609375 54.55828125 -69.99609375 55.23828125 C-71.64609375 55.89828125 -73.29609375 56.55828125 -74.99609375 57.23828125 C-74.99609375 57.89828125 -74.99609375 58.55828125 -74.99609375 59.23828125 C-76.23359375 60.19734375 -76.23359375 60.19734375 -77.49609375 61.17578125 C-88.57380065 70.16335477 -95.5330002 85.50936001 -97.27685547 99.48901367 C-99.22063349 121.85644489 -96.85449747 143.45071686 -81.99609375 161.23828125 C-61.02436607 183.13184311 -28.21526589 193.23399719 0.50390625 200.078125 C1.58486572 200.33650146 2.6658252 200.59487793 3.77954102 200.86108398 C15.80803549 203.7070381 27.90095565 206.2320417 40.00390625 208.73828125 C61.6580576 213.22235231 83.29078815 217.85737827 104.56640625 223.92578125 C105.57896484 224.20744141 106.59152344 224.48910156 107.63476562 224.77929688 C113.2074725 226.35127217 118.62437094 228.10065291 124.00390625 230.23828125 C124.78660889 230.54096924 125.56931152 230.84365723 126.37573242 231.15551758 C144.12673538 238.05670571 162.53558041 245.907802 178.00390625 257.23828125 C178.00390625 257.89828125 178.00390625 258.55828125 178.00390625 259.23828125 C178.78765625 259.54765625 179.57140625 259.85703125 180.37890625 260.17578125 C183.00390625 261.23828125 183.00390625 261.23828125 185.00390625 262.23828125 C185.00390625 262.89828125 185.00390625 263.55828125 185.00390625 264.23828125 C185.66390625 264.23828125 186.32390625 264.23828125 187.00390625 264.23828125 C187.00390625 264.89828125 187.00390625 265.55828125 187.00390625 266.23828125 C187.57625 266.47546875 188.14859375 266.71265625 188.73828125 266.95703125 C191.49183545 268.51421363 193.17186259 270.36320922 195.25390625 272.73828125 C196.31351562 273.929375 196.31351562 273.929375 197.39453125 275.14453125 C199.00390625 277.23828125 199.00390625 277.23828125 199.00390625 279.23828125 C199.66390625 279.23828125 200.32390625 279.23828125 201.00390625 279.23828125 C205.04361483 284.23476292 207.571796 289.32779445 210.00390625 295.23828125 C210.41769531 296.1921875 210.83148438 297.14609375 211.2578125 298.12890625 C216.53756094 310.42205188 219.15605207 321.28577831 219.171875 334.6328125 C219.1752034 335.6202092 219.1785318 336.6076059 219.18196106 337.62492371 C219.18700559 339.70673154 219.18937015 341.78854739 219.18920898 343.87036133 C219.19139206 347.0302484 219.20956504 350.18978409 219.22851562 353.34960938 C219.23145087 355.38150924 219.23343479 357.41341074 219.234375 359.4453125 C219.24156052 360.37793411 219.24874603 361.31055573 219.25614929 362.2714386 C219.21243291 375.02567613 216.22645862 389.14045662 209.98657227 400.32470703 C208.83074668 402.46418827 208.83074668 402.46418827 207.76171875 405.83984375 C205.84101422 411.05929355 202.9326278 415.57412501 199.94140625 420.23828125 C199.39935547 421.10839844 198.85730469 421.97851562 198.29882812 422.875 C195.28546283 427.62039851 195.28546283 427.62039851 194.00390625 429.23828125 C193.34390625 429.23828125 192.68390625 429.23828125 192.00390625 429.23828125 C191.60171875 430.10453125 191.60171875 430.10453125 191.19140625 430.98828125 C189.97461436 433.29378168 188.70056746 435.25884317 187.00390625 437.23828125 C186.34390625 437.23828125 185.68390625 437.23828125 185.00390625 437.23828125 C184.75382812 437.82738281 184.50375 438.41648437 184.24609375 439.0234375 C182.83952378 441.5313783 181.34836291 442.86252703 179.12890625 444.67578125 C176.85290049 446.54072133 175.03942392 448.18987018 173.29296875 450.5703125 C170.09639364 454.29601353 166.31452748 456.76841595 162.25390625 459.48828125 C161.41134277 460.05748291 160.5687793 460.62668457 159.70068359 461.21313477 C152.02991641 466.33299301 144.17866426 470.9752594 136.00390625 475.23828125 C135.03582031 475.75519531 134.06773437 476.27210938 133.0703125 476.8046875 C104.09106985 491.23532801 69.55122917 498.30855174 37.27734375 498.44140625 C36.17202301 498.44710632 35.06670227 498.4528064 33.92788696 498.4586792 C31.59321025 498.46808089 29.25852056 498.47464383 26.92382812 498.47851562 C23.43724776 498.48812053 19.95128371 498.51914925 16.46484375 498.55078125 C1.42306924 498.62091415 -13.13148388 497.52425574 -27.99609375 495.23828125 C-28.75984818 495.1227037 -29.5236026 495.00712616 -30.3105011 494.88804626 C-58.37775945 490.58654224 -84.78270972 479.96023976 -108.99609375 465.36328125 C-109.79249268 464.88673096 -110.5888916 464.41018066 -111.40942383 463.91918945 C-112.1392749 463.47019287 -112.86912598 463.02119629 -113.62109375 462.55859375 C-114.27335937 462.15914551 -114.925625 461.75969727 -115.59765625 461.34814453 C-116.05914062 460.98188965 -116.520625 460.61563477 -116.99609375 460.23828125 C-116.99609375 459.57828125 -116.99609375 458.91828125 -116.99609375 458.23828125 C-117.70765625 457.99722656 -118.41921875 457.75617188 -119.15234375 457.5078125 C-122.4196195 456.04920726 -124.75274272 454.21832881 -127.49609375 451.92578125 C-128.41390625 451.16652344 -129.33171875 450.40726562 -130.27734375 449.625 C-134.67359055 445.76565115 -138.65170624 441.58681692 -142.55859375 437.23828125 C-143.30238281 436.41328125 -144.04617187 435.58828125 -144.8125 434.73828125 C-148.5725028 430.43344799 -151.82801141 425.99040476 -154.99609375 421.23828125 C-155.640625 420.46097656 -156.28515625 419.68367188 -156.94921875 418.8828125 C-158.95017388 416.29760902 -160.33238521 413.86546343 -161.74609375 410.92578125 C-163.40604596 407.48043964 -165.0752949 404.05991622 -166.9140625 400.70703125 C-175.10119186 385.5519624 -179.34127596 369.13003122 -182.93359375 352.36328125 C-183.25106567 350.89375 -183.25106567 350.89375 -183.57495117 349.39453125 C-183.8588269 347.99074219 -183.8588269 347.99074219 -184.1484375 346.55859375 C-184.31335693 345.74664551 -184.47827637 344.93469727 -184.64819336 344.09814453 C-185.12970503 340.13994968 -185.06269669 336.2203392 -184.99609375 332.23828125 C-179.3259467 331.56266626 -173.65577969 330.88721904 -167.9855957 330.21191406 C-166.06469204 329.9831168 -164.14379343 329.75427706 -162.22290039 329.52539062 C-160.83542603 329.36006836 -160.83542603 329.36006836 -159.41992188 329.19140625 C-158.4975473 329.08149353 -157.57517273 328.97158081 -156.62484741 328.8583374 C-154.77140143 328.63774863 -152.91790609 328.41757419 -151.06436157 328.19781494 C-146.70854282 327.68138124 -142.35332123 327.16105807 -137.99951172 326.62792969 C-137.22498154 326.53410004 -136.45045135 326.44027039 -135.65245056 326.34359741 C-134.22048862 326.17005665 -132.78879208 325.99430444 -131.35743713 325.81582642 C-127.88214556 325.39746485 -124.49665164 325.14842646 -120.99609375 325.23828125 C-120.89063232 325.94210937 -120.7851709 326.6459375 -120.67651367 327.37109375 C-119.64152125 334.25382143 -118.58163284 341.13225828 -117.5 348.0078125 C-117.09017727 350.63512567 -116.69670864 353.26397475 -116.30859375 355.89453125 C-113.09116434 375.68172209 -103.88956289 393.66508773 -92.46484375 409.9453125 C-90.99609375 412.23828125 -90.99609375 412.23828125 -90.99609375 414.23828125 C-90.33609375 414.23828125 -89.67609375 414.23828125 -88.99609375 414.23828125 C-88.72796875 415.04265625 -88.45984375 415.84703125 -88.18359375 416.67578125 C-87.79171875 417.52140625 -87.39984375 418.36703125 -86.99609375 419.23828125 C-86.00609375 419.56828125 -85.01609375 419.89828125 -83.99609375 420.23828125 C-83.99609375 420.89828125 -83.99609375 421.55828125 -83.99609375 422.23828125 C-83.33609375 422.23828125 -82.67609375 422.23828125 -81.99609375 422.23828125 C-80.62109375 423.671875 -80.62109375 423.671875 -78.99609375 425.67578125 C-66.08306775 440.66646316 -49.25116778 450.13149307 -30.99609375 457.23828125 C-30.00738281 457.625 -29.01867187 458.01171875 -28 458.41015625 C5.78936173 470.59494689 43.77279223 469.66554658 78.00390625 460.23828125 C79.14472656 459.93019531 80.28554688 459.62210937 81.4609375 459.3046875 C91.59172062 456.2532468 100.92777669 450.90054799 109.81640625 445.23828125 C113.00390625 443.23828125 113.00390625 443.23828125 115.00390625 443.23828125 C115.00390625 442.57828125 115.00390625 441.91828125 115.00390625 441.23828125 C116.796875 439.6875 116.796875 439.6875 119.19140625 437.92578125 C126.37433727 432.46585861 135.07496876 425.02509372 138.00390625 416.23828125 C138.66390625 416.23828125 139.32390625 416.23828125 140.00390625 416.23828125 C140.11992187 415.6659375 140.2359375 415.09359375 140.35546875 414.50390625 C141.05963737 412.04355807 142.07445263 410.18608796 143.37890625 407.98828125 C150.04798555 396.18766255 151.36374494 384.33676308 151.31958008 370.87792969 C151.31642076 368.87249234 151.33997246 366.86853764 151.36523438 364.86328125 C151.37424828 346.58308975 146.38231388 331.83072501 134.00390625 318.23828125 C133.1840625 317.33529297 133.1840625 317.33529297 132.34765625 316.4140625 C102.56772297 287.37862755 49.41032603 282.55331792 10.56518555 274.309021 C-111.55309757 248.36318655 -111.55309757 248.36318655 -140.99609375 210.23828125 C-141.77984375 209.49578125 -142.56359375 208.75328125 -143.37109375 207.98828125 C-161.26470162 189.24259681 -166.64274592 162.87249029 -166.43359375 137.86328125 C-166.42953018 136.71673569 -166.42953018 136.71673569 -166.42538452 135.54702759 C-166.3634844 124.01447707 -165.60466484 113.25145275 -161.99609375 102.23828125 C-161.79822266 101.60212891 -161.60035156 100.96597656 -161.39648438 100.31054688 C-159.05192715 92.80644625 -156.15830918 85.90250258 -151.99609375 79.23828125 C-151.4134375 78.29726562 -150.83078125 77.35625 -150.23046875 76.38671875 C-144.36328659 67.04360094 -144.36328659 67.04360094 -141.99609375 64.23828125 C-141.33609375 64.23828125 -140.67609375 64.23828125 -139.99609375 64.23828125 C-139.93421875 63.68140625 -139.87234375 63.12453125 -139.80859375 62.55078125 C-138.65511496 59.26780315 -136.4891248 57.65890061 -133.99609375 55.23828125 C-133.01365038 54.22713172 -132.03456081 53.2127144 -131.05859375 52.1953125 C-130.0378305 51.14706716 -129.01699646 50.09889076 -127.99609375 49.05078125 C-127.23425781 48.25124023 -127.23425781 48.25124023 -126.45703125 47.43554688 C-123.51081898 44.43267668 -121.04933568 42.45276367 -116.99609375 41.23828125 C-116.99609375 40.57828125 -116.99609375 39.91828125 -116.99609375 39.23828125 C-115.21579655 37.89415687 -113.36875628 36.63791306 -111.49609375 35.42578125 C-110.94147461 35.06613281 -110.38685547 34.70648438 -109.81542969 34.3359375 C-108.21200464 33.29870152 -106.60415247 32.26831887 -104.99609375 31.23828125 C-104.3309375 30.79097656 -103.66578125 30.34367187 -102.98046875 29.8828125 C-96.06248196 25.31756446 -88.46225556 21.80631896 -80.99609375 18.23828125 C-80.16062012 17.83552979 -79.32514648 17.43277832 -78.46435547 17.01782227 C-71.70794291 13.84258791 -64.88124713 11.35921319 -57.74609375 9.17578125 C-56.62726807 8.83216553 -55.50844238 8.4885498 -54.35571289 8.13452148 C-43.40330404 4.88190376 -32.32087207 2.71091912 -20.99609375 1.23828125 C-20.37150772 1.1535405 -19.74692169 1.06879974 -19.10340881 0.98149109 C-12.73349464 0.18436151 -6.414668 0.04407705 0 0 Z " fill="#CF9E75" transform="translate(238.99609375,6.76171875)"/>
</svg>
