<?xml version="1.0" encoding="utf-8"?>
<svg xmlns="http://www.w3.org/2000/svg" width="94" height="77" viewBox="0 0 94 77" fill="none">
<path d="M71.2155 50.6688H59.464L50.8245 32.5909C46.1106 35.1648 43.4179 41.1264 38.6378 45.0618C36.2005 47.069 33.3501 48.8546 29.7966 50.0672C28.1885 50.6149 25.4548 51.3241 24.4269 51.4254C23.9981 51.4698 23.6954 51.4508 23.6323 51.2956C23.5819 51.1753 23.7017 51.0835 24.1589 50.8619C24.6823 50.6086 26.839 49.7126 28.1917 48.766C29.8786 47.5851 30.8466 46.306 30.9222 45.3214C30.4587 43.6782 27.1511 40.031 30.5344 33.3412C31.7483 30.9414 32.7983 29.2127 33.5488 27.4778C34.4127 25.4832 35.0244 22.6749 35.2325 20.5854C35.2451 20.4651 35.2672 20.4682 35.3334 20.5379C36.9793 22.2095 43.3611 28.8075 42.4404 35.3643C44.5625 34.5443 48.2421 32.059 49.9385 30.7324C51.7294 29.333 52.8961 27.8704 54.7942 27.8387C56.4937 27.8102 56.6388 28.6239 57.9915 28.8043C58.3257 28.8486 58.8239 28.7822 59.0793 28.6587C59.1833 28.608 59.1581 28.4941 59.0004 28.4561C57.1559 28.0192 56.7145 26.509 54.3276 26.509C52.1866 26.509 50.484 28.4877 49.2511 29.2982L43.2161 16.669C40.6936 11.3881 41.463 7.55093 47.003 0L71.2155 50.6688Z" fill="url(#paint0_linear_30922_73115)"/>
<path d="M94.0001 76.6705L89.8917 71.7632C92.0547 71.263 93.3758 70.0156 93.3758 67.8469C93.3758 65.3964 91.3074 64.168 88.6872 64.168H80.4766V76.6705H82.6522V71.9405H87.5363L91.298 76.6705H94.0001ZM82.6553 66.1056H88.7503C90.2511 66.1056 91.1466 66.8116 91.1466 67.9957C91.1466 69.1798 90.207 69.9966 88.7503 69.9966H82.6553V66.1056Z" fill="url(#paint1_linear_30922_73115)"/>
<path d="M6.42283 64.168L0 76.6705H2.46256L3.831 73.8876H11.143L12.5114 76.6705H15.0308L8.60792 64.168H6.41653H6.42283ZM4.78953 71.9437L7.49173 66.4507L10.1939 71.9437H4.78953Z" fill="url(#paint2_linear_30922_73115)"/>
<path d="M26.5519 65.8118C28.5982 65.8118 30.2883 66.5874 31.1522 67.9488L32.9085 66.7616C31.6788 65.0298 29.5032 63.833 26.5519 63.833C21.7813 63.833 19.0381 66.961 19.0381 70.4151C19.0381 73.8692 21.7781 76.9973 26.5519 76.9973C29.5032 76.9973 31.6788 75.8005 32.9085 74.0687L31.1522 72.8815C30.2851 74.2428 28.5982 75.0185 26.5519 75.0185C23.3452 75.0185 21.2705 73.2107 21.2705 70.412C21.2705 67.6132 23.342 65.8054 26.5519 65.8054V65.8118Z" fill="url(#paint3_linear_30922_73115)"/>
<path d="M46.3224 65.8118C48.3687 65.8118 50.0588 66.5874 50.9227 67.9488L52.679 66.7616C51.4493 65.0298 49.2737 63.833 46.3224 63.833C41.5518 63.833 38.8086 66.961 38.8086 70.4151C38.8086 73.8692 41.5486 76.9973 46.3224 76.9973C49.2737 76.9973 51.4493 75.8005 52.679 74.0687L50.9227 72.8815C50.0556 74.2428 48.3687 75.0185 46.3224 75.0185C43.1157 75.0185 41.041 73.2107 41.041 70.412C41.041 67.6132 43.1126 65.8054 46.3224 65.8054V65.8118Z" fill="url(#paint4_linear_30922_73115)"/>
<path d="M66.0978 63.8359C61.3272 63.8359 58.584 66.9639 58.584 70.4181C58.584 73.8722 61.324 77.0002 66.0978 77.0002C70.8716 77.0002 73.6116 73.8722 73.6116 70.4181C73.6116 66.9639 70.8716 63.8359 66.0978 63.8359ZM66.0978 75.0468C62.8911 75.0468 60.8164 73.2295 60.8164 70.4181C60.8164 67.6066 62.8879 65.7894 66.0978 65.7894C69.3076 65.7894 71.3792 67.6066 71.3792 70.4181C71.3792 73.2295 69.3076 75.0468 66.0978 75.0468Z" fill="url(#paint5_linear_30922_73115)"/>
<defs>
<linearGradient id="paint0_linear_30922_73115" x1="29.0619" y1="20.006" x2="67.6672" y2="54.6244" gradientUnits="userSpaceOnUse">
<stop stop-color="#FED17F"/>
<stop offset="0.3" stop-color="#D9AE6C"/>
<stop offset="0.57" stop-color="#BE945F"/>
<stop offset="0.81" stop-color="#AD8556"/>
<stop offset="1" stop-color="#A88054"/>
</linearGradient>
<linearGradient id="paint1_linear_30922_73115" x1="-0.96448" y1="-7.98216" x2="93.7149" y2="76.9218" gradientUnits="userSpaceOnUse">
<stop stop-color="#FED17F"/>
<stop offset="0.3" stop-color="#D9AE6C"/>
<stop offset="0.57" stop-color="#BE945F"/>
<stop offset="0.81" stop-color="#AD8556"/>
<stop offset="1" stop-color="#A88054"/>
</linearGradient>
<linearGradient id="paint2_linear_30922_73115" x1="2.79994" y1="69.0531" x2="71.0578" y2="130.262" gradientUnits="userSpaceOnUse">
<stop stop-color="#FED17F"/>
<stop offset="0.3" stop-color="#D9AE6C"/>
<stop offset="0.57" stop-color="#BE945F"/>
<stop offset="0.81" stop-color="#AD8556"/>
<stop offset="1" stop-color="#A88054"/>
</linearGradient>
<linearGradient id="paint3_linear_30922_73115" x1="6.95862" y1="52.7045" x2="79.2767" y2="117.554" gradientUnits="userSpaceOnUse">
<stop stop-color="#FED17F"/>
<stop offset="0.3" stop-color="#D9AE6C"/>
<stop offset="0.57" stop-color="#BE945F"/>
<stop offset="0.81" stop-color="#AD8556"/>
<stop offset="1" stop-color="#A88054"/>
</linearGradient>
<linearGradient id="paint4_linear_30922_73115" x1="11.4745" y1="38.9134" x2="83.7926" y2="103.763" gradientUnits="userSpaceOnUse">
<stop stop-color="#FED17F"/>
<stop offset="0.3" stop-color="#D9AE6C"/>
<stop offset="0.57" stop-color="#BE945F"/>
<stop offset="0.81" stop-color="#AD8556"/>
<stop offset="1" stop-color="#A88054"/>
</linearGradient>
<linearGradient id="paint5_linear_30922_73115" x1="19.4384" y1="28.2342" x2="86.1868" y2="88.0915" gradientUnits="userSpaceOnUse">
<stop stop-color="#FED17F"/>
<stop offset="0.3" stop-color="#D9AE6C"/>
<stop offset="0.57" stop-color="#BE945F"/>
<stop offset="0.81" stop-color="#AD8556"/>
<stop offset="1" stop-color="#A88054"/>
</linearGradient>
</defs>
</svg>